<svg width="16" height="16" viewBox="0 0 16 16" fill="none" xmlns="http://www.w3.org/2000/svg">
<rect width="16" height="16" fill="#F2F2F2"/>
<g id="Mobile - Index - Light" clip-path="url(#clip0_0_1)">
<rect width="375" height="3305" transform="translate(-275 -32)" fill="white"/>
<rect id="Rectangle Copy 3" x="-275" y="-32" width="375" height="3305" fill="#FAFAFA"/>
<g id="HEADER">
<g id="Rectangle" filter="url(#filter0_d_0_1)">
<rect x="-275" y="-32" width="375" height="80" fill="white"/>
</g>
<g id="Group" clip-path="url(#clip1_0_1)">
<g id="Group 3">
<path id="Path" fill-rule="evenodd" clip-rule="evenodd" d="M10.8426 11.052C7.73486 11.052 5.21543 8.74226 5.21543 5.89457C5.21543 4.82024 5.57343 3.82526 6.18514 3C3.75229 3.75612 2 5.86498 2 8.35045C2 11.4708 4.75943 14 8.16286 14C10.8743 14 13.1757 12.3945 14 10.1636C13.1 10.7238 12.0129 11.052 10.8426 11.052Z" fill="white" stroke="#111517"/>
</g>
</g>
</g>
</g>
<defs>
<filter id="filter0_d_0_1" x="-279" y="-34" width="383" height="88" filterUnits="userSpaceOnUse" color-interpolation-filters="sRGB">
<feFlood flood-opacity="0" result="BackgroundImageFix"/>
<feColorMatrix in="SourceAlpha" type="matrix" values="0 0 0 0 0 0 0 0 0 0 0 0 0 0 0 0 0 0 127 0" result="hardAlpha"/>
<feOffset dy="2"/>
<feGaussianBlur stdDeviation="2"/>
<feColorMatrix type="matrix" values="0 0 0 0 0 0 0 0 0 0 0 0 0 0 0 0 0 0 0.0562443 0"/>
<feBlend mode="normal" in2="BackgroundImageFix" result="effect1_dropShadow_0_1"/>
<feBlend mode="normal" in="SourceGraphic" in2="effect1_dropShadow_0_1" result="shape"/>
</filter>
<clipPath id="clip0_0_1">
<rect width="375" height="3305" fill="white" transform="translate(-275 -32)"/>
</clipPath>
<clipPath id="clip1_0_1">
<rect width="84" height="17" fill="white"/>
</clipPath>
</defs>
</svg>
